<svg width="180" height="48" viewBox="0 0 180 48" fill="none" xmlns="http://www.w3.org/2000/svg">
<rect width="180" height="48" rx="24" fill="#1F7CFF"/>
<path d="M50.0529 18.592C51.4289 18.592 52.5702 18.9333 53.4769 19.616C54.3835 20.288 54.9649 21.2 55.2209 22.352H52.8529C52.6289 21.84 52.2715 21.4347 51.7809 21.136C51.3009 20.8267 50.7302 20.672 50.0689 20.672C49.4182 20.672 48.8422 20.8213 48.3409 21.12C47.8395 21.4187 47.4502 21.8453 47.1729 22.4C46.8955 22.9547 46.7569 23.6053 46.7569 24.352C46.7569 25.536 47.0715 26.4587 47.7009 27.12C48.3409 27.7813 49.2102 28.112 50.3089 28.112C51.1195 28.112 51.8129 27.872 52.3889 27.392C52.9755 26.912 53.3542 26.2453 53.5249 25.392H49.7009V23.776H55.4129V25.952C55.2529 26.6987 54.9382 27.3867 54.4689 28.016C54.0102 28.6453 53.4022 29.152 52.6449 29.536C51.8982 29.9093 51.0395 30.096 50.0689 30.096C48.9595 30.096 47.9782 29.856 47.1249 29.376C46.2822 28.8853 45.6262 28.208 45.1569 27.344C44.6982 26.4693 44.4689 25.472 44.4689 24.352C44.4689 23.232 44.6982 22.24 45.1569 21.376C45.6262 20.5013 46.2822 19.8187 47.1249 19.328C47.9675 18.8373 48.9435 18.592 50.0529 18.592ZM65.4381 25.232C65.4381 25.456 65.4115 25.712 65.3581 26H58.8621C58.8941 26.7893 59.1075 27.3707 59.5021 27.744C59.8968 28.1173 60.3875 28.304 60.9741 28.304C61.4968 28.304 61.9288 28.176 62.2701 27.92C62.6221 27.664 62.8461 27.3173 62.9421 26.88H65.3261C65.2088 27.4987 64.9581 28.0533 64.5741 28.544C64.1901 29.0347 63.6941 29.4187 63.0861 29.696C62.4888 29.9733 61.8221 30.112 61.0861 30.112C60.2221 30.112 59.4541 29.9307 58.7821 29.568C58.1101 29.1947 57.5875 28.6667 57.2141 27.984C56.8408 27.3013 56.6541 26.496 56.6541 25.568C56.6541 24.64 56.8408 23.8347 57.2141 23.152C57.5875 22.4587 58.1101 21.9307 58.7821 21.568C59.4541 21.2053 60.2221 21.024 61.0861 21.024C61.9608 21.024 62.7235 21.2053 63.3741 21.568C64.0355 21.9307 64.5421 22.432 64.8941 23.072C65.2568 23.7013 65.4381 24.4213 65.4381 25.232ZM63.1661 25.008C63.1981 24.2827 63.0061 23.7333 62.5901 23.36C62.1848 22.9867 61.6835 22.8 61.0861 22.8C60.4781 22.8 59.9661 22.9867 59.5501 23.36C59.1341 23.7333 58.9048 24.2827 58.8621 25.008H63.1661ZM71.7756 28.064V30H70.5916C69.5996 30 68.837 29.76 68.3036 29.28C67.781 28.8 67.5196 28 67.5196 26.88V23.04H66.2876V21.136H67.5196V18.944H69.7756V21.136H71.7596V23.04H69.7756V26.912C69.7756 27.3387 69.861 27.6373 70.0316 27.808C70.2023 27.9787 70.4903 28.064 70.8956 28.064H71.7756ZM84.6434 26.912C84.6434 27.488 84.4994 28.0213 84.2114 28.512C83.9234 28.992 83.4967 29.3813 82.9314 29.68C82.366 29.968 81.678 30.112 80.8674 30.112C80.0674 30.112 79.3527 29.9787 78.7234 29.712C78.094 29.4347 77.5874 29.04 77.2034 28.528C76.83 28.016 76.6167 27.4187 76.5634 26.736H78.9634C79.0167 27.1947 79.198 27.5787 79.5074 27.888C79.8274 28.1867 80.2487 28.336 80.7714 28.336C81.2407 28.336 81.598 28.2133 81.8434 27.968C82.0994 27.712 82.2274 27.3867 82.2274 26.992C82.2274 26.64 82.126 26.352 81.9234 26.128C81.7207 25.8933 81.4647 25.7067 81.1554 25.568C80.846 25.4293 80.4194 25.2693 79.8754 25.088C79.1714 24.8533 78.5954 24.624 78.1474 24.4C77.6994 24.1653 77.3154 23.8293 76.9954 23.392C76.686 22.9547 76.5314 22.384 76.5314 21.68C76.5314 20.7093 76.878 19.9467 77.5714 19.392C78.2754 18.8267 79.2034 18.544 80.3554 18.544C81.55 18.544 82.4994 18.832 83.2034 19.408C83.918 19.984 84.3234 20.752 84.4194 21.712H81.9874C81.9234 21.3067 81.7527 20.976 81.4754 20.72C81.198 20.4533 80.8194 20.32 80.3394 20.32C79.9234 20.32 79.5874 20.432 79.3314 20.656C79.0754 20.8693 78.9474 21.184 78.9474 21.6C78.9474 21.9307 79.0434 22.208 79.2354 22.432C79.438 22.6453 79.6887 22.8213 79.9874 22.96C80.2967 23.0987 80.7127 23.2533 81.2354 23.424C81.9607 23.68 82.5474 23.92 82.9954 24.144C83.454 24.368 83.8434 24.704 84.1634 25.152C84.4834 25.6 84.6434 26.1867 84.6434 26.912ZM91.0413 28.064V30H89.8573C88.8653 30 88.1026 29.76 87.5693 29.28C87.0466 28.8 86.7853 28 86.7853 26.88V23.04H85.5533V21.136H86.7853V18.944H89.0413V21.136H91.0253V23.04H89.0413V26.912C89.0413 27.3387 89.1266 27.6373 89.2973 27.808C89.4679 27.9787 89.7559 28.064 90.1613 28.064H91.0413ZM96.1366 21.024C96.8833 21.024 97.5233 21.2 98.0566 21.552C98.59 21.904 98.9686 22.3787 99.1926 22.976V21.136H101.433V30H99.1926V28.144C98.9686 28.7413 98.59 29.2213 98.0566 29.584C97.5233 29.936 96.8833 30.112 96.1366 30.112C95.39 30.112 94.718 29.9307 94.1206 29.568C93.5233 29.2053 93.054 28.6827 92.7126 28C92.382 27.3067 92.2166 26.496 92.2166 25.568C92.2166 24.64 92.382 23.8347 92.7126 23.152C93.054 22.4587 93.5233 21.9307 94.1206 21.568C94.718 21.2053 95.39 21.024 96.1366 21.024ZM96.8406 22.992C96.1366 22.992 95.5713 23.2213 95.1446 23.68C94.718 24.1387 94.5046 24.768 94.5046 25.568C94.5046 26.368 94.718 26.9973 95.1446 27.456C95.5713 27.904 96.1366 28.128 96.8406 28.128C97.5233 28.128 98.0833 27.8987 98.5206 27.44C98.9686 26.9707 99.1926 26.3467 99.1926 25.568C99.1926 24.7787 98.9686 24.1547 98.5206 23.696C98.0833 23.2267 97.5233 22.992 96.8406 22.992ZM105.733 22.832C106.064 22.2667 106.501 21.824 107.045 21.504C107.589 21.1733 108.197 21.008 108.869 21.008V23.424H108.213C106.56 23.424 105.733 24.192 105.733 25.728V30H103.477V21.136H105.733V22.832ZM114.854 28.064V30H113.67C112.678 30 111.915 29.76 111.382 29.28C110.859 28.8 110.598 28 110.598 26.88V23.04H109.366V21.136H110.598V18.944H112.854V21.136H114.838V23.04H112.854V26.912C112.854 27.3387 112.939 27.6373 113.11 27.808C113.28 27.9787 113.568 28.064 113.974 28.064H114.854ZM124.813 25.232C124.813 25.456 124.786 25.712 124.733 26H118.237C118.269 26.7893 118.482 27.3707 118.877 27.744C119.272 28.1173 119.762 28.304 120.349 28.304C120.872 28.304 121.304 28.176 121.645 27.92C121.997 27.664 122.221 27.3173 122.317 26.88H124.701C124.584 27.4987 124.333 28.0533 123.949 28.544C123.565 29.0347 123.069 29.4187 122.461 29.696C121.864 29.9733 121.197 30.112 120.461 30.112C119.597 30.112 118.829 29.9307 118.157 29.568C117.485 29.1947 116.962 28.6667 116.589 27.984C116.216 27.3013 116.029 26.496 116.029 25.568C116.029 24.64 116.216 23.8347 116.589 23.152C116.962 22.4587 117.485 21.9307 118.157 21.568C118.829 21.2053 119.597 21.024 120.461 21.024C121.336 21.024 122.098 21.2053 122.749 21.568C123.41 21.9307 123.917 22.432 124.269 23.072C124.632 23.7013 124.813 24.4213 124.813 25.232ZM122.541 25.008C122.573 24.2827 122.381 23.7333 121.965 23.36C121.56 22.9867 121.058 22.8 120.461 22.8C119.853 22.8 119.341 22.9867 118.925 23.36C118.509 23.7333 118.28 24.2827 118.237 25.008H122.541ZM129.887 21.024C130.633 21.024 131.268 21.2 131.791 21.552C132.324 21.904 132.708 22.3787 132.943 22.976V18.16H135.183V30H132.943V28.144C132.708 28.7413 132.324 29.2213 131.791 29.584C131.268 29.936 130.633 30.112 129.887 30.112C129.14 30.112 128.468 29.9307 127.871 29.568C127.273 29.2053 126.804 28.6827 126.463 28C126.132 27.3067 125.967 26.496 125.967 25.568C125.967 24.64 126.132 23.8347 126.463 23.152C126.804 22.4587 127.273 21.9307 127.871 21.568C128.468 21.2053 129.14 21.024 129.887 21.024ZM130.591 22.992C129.887 22.992 129.321 23.2213 128.895 23.68C128.468 24.1387 128.255 24.768 128.255 25.568C128.255 26.368 128.468 26.9973 128.895 27.456C129.321 27.904 129.887 28.128 130.591 28.128C131.273 28.128 131.833 27.8987 132.271 27.44C132.719 26.9707 132.943 26.3467 132.943 25.568C132.943 24.7787 132.719 24.1547 132.271 23.696C131.833 23.2267 131.273 22.992 130.591 22.992Z" fill="white"/>
</svg>
