<svg width="150" height="48" viewBox="0 0 150 48" fill="none" xmlns="http://www.w3.org/2000/svg">
<rect width="150" height="48" rx="24" fill="#F5F6FB"/>
<path d="M57.3118 27.072C57.3118 27.6053 57.1838 28.1013 56.9278 28.56C56.6718 29.0187 56.2825 29.392 55.7598 29.68C55.2371 29.968 54.5918 30.112 53.8238 30.112C53.0771 30.112 52.4105 29.9787 51.8238 29.712C51.2478 29.4347 50.7838 29.0613 50.4318 28.592C50.0905 28.112 49.8931 27.568 49.8398 26.96H51.3918C51.4238 27.28 51.5305 27.5947 51.7118 27.904C51.9038 28.2027 52.1705 28.4533 52.5118 28.656C52.8638 28.848 53.2851 28.944 53.7758 28.944C54.4158 28.944 54.9065 28.7733 55.2478 28.432C55.5891 28.0907 55.7598 27.6533 55.7598 27.12C55.7598 26.6613 55.6371 26.288 55.3918 26C55.1571 25.712 54.8638 25.488 54.5118 25.328C54.1598 25.1573 53.6798 24.976 53.0718 24.784C52.3571 24.5493 51.7811 24.3307 51.3438 24.128C50.9171 23.9147 50.5491 23.6 50.2398 23.184C49.9411 22.768 49.7918 22.2187 49.7918 21.536C49.7918 20.9493 49.9305 20.432 50.2078 19.984C50.4958 19.536 50.9011 19.1893 51.4238 18.944C51.9571 18.6987 52.5811 18.576 53.2958 18.576C54.4051 18.576 55.2851 18.848 55.9358 19.392C56.5865 19.9253 56.9651 20.608 57.0718 21.44H55.5038C55.4185 20.992 55.1891 20.5973 54.8158 20.256C54.4425 19.9147 53.9358 19.744 53.2958 19.744C52.7091 19.744 52.2398 19.8987 51.8878 20.208C51.5358 20.5067 51.3598 20.9333 51.3598 21.488C51.3598 21.9253 51.4718 22.2827 51.6958 22.56C51.9305 22.8267 52.2185 23.04 52.5598 23.2C52.9011 23.3493 53.3705 23.52 53.9678 23.712C54.6931 23.9467 55.2745 24.1707 55.7118 24.384C56.1598 24.5973 56.5385 24.9227 56.8478 25.36C57.1571 25.7867 57.3118 26.3573 57.3118 27.072ZM59.0136 18.64C59.0136 18.3733 59.1042 18.16 59.2856 18C59.4669 17.8293 59.7069 17.744 60.0056 17.744C60.3042 17.744 60.5442 17.8293 60.7256 18C60.9069 18.16 60.9976 18.3733 60.9976 18.64C60.9976 18.9067 60.9069 19.1253 60.7256 19.296C60.5442 19.456 60.3042 19.536 60.0056 19.536C59.7069 19.536 59.4669 19.456 59.2856 19.296C59.1042 19.1253 59.0136 18.9067 59.0136 18.64ZM60.7256 21.216V30H59.2696V21.216H60.7256ZM66.6664 21.104C67.5198 21.104 68.2398 21.3173 68.8264 21.744C69.4238 22.1707 69.8398 22.7413 70.0744 23.456V21.216H71.5304V30.144C71.5304 30.9547 71.3598 31.6747 71.0184 32.304C70.6771 32.9333 70.1971 33.424 69.5784 33.776C68.9598 34.128 68.2398 34.304 67.4184 34.304C66.2344 34.304 65.2691 34.016 64.5224 33.44C63.7758 32.8747 63.3011 32.1067 63.0984 31.136H64.5384C64.7091 31.7227 65.0291 32.1813 65.4984 32.512C65.9784 32.8533 66.5918 33.024 67.3384 33.024C68.1278 33.024 68.7784 32.768 69.2904 32.256C69.8131 31.7547 70.0744 31.0507 70.0744 30.144V27.76C69.8398 28.4747 69.4238 29.0453 68.8264 29.472C68.2398 29.8987 67.5198 30.112 66.6664 30.112C65.8878 30.112 65.1944 29.9307 64.5864 29.568C63.9784 29.2053 63.4984 28.688 63.1464 28.016C62.8051 27.3333 62.6344 26.5333 62.6344 25.616C62.6344 24.6987 62.8051 23.8987 63.1464 23.216C63.4984 22.5333 63.9784 22.0107 64.5864 21.648C65.1944 21.2853 65.8878 21.104 66.6664 21.104ZM67.0824 22.4C66.1864 22.4 65.4664 22.688 64.9224 23.264C64.3891 23.8293 64.1224 24.6133 64.1224 25.616C64.1224 26.6187 64.3891 27.408 64.9224 27.984C65.4664 28.5493 66.1864 28.832 67.0824 28.832C67.6584 28.832 68.1704 28.6987 68.6184 28.432C69.0771 28.1653 69.4344 27.792 69.6904 27.312C69.9464 26.8213 70.0744 26.256 70.0744 25.616C70.0744 24.976 69.9464 24.4107 69.6904 23.92C69.4344 23.4293 69.0771 23.056 68.6184 22.8C68.1704 22.5333 67.6584 22.4 67.0824 22.4ZM78.4717 21.072C79.4957 21.072 80.3224 21.4027 80.9517 22.064C81.581 22.7147 81.8957 23.6587 81.8957 24.896V30H80.4397V25.024C80.4397 24.1493 80.2157 23.4773 79.7677 23.008C79.3197 22.5387 78.7117 22.304 77.9437 22.304C77.1437 22.304 76.5037 22.5653 76.0237 23.088C75.5437 23.6 75.3037 24.352 75.3037 25.344V30H73.8477V21.216H75.3037V23.296C75.5277 22.5813 75.9224 22.032 76.4877 21.648C77.0637 21.264 77.725 21.072 78.4717 21.072ZM89.5381 18.72V30H88.0821V18.72H89.5381ZM96.5029 21.072C97.5269 21.072 98.3536 21.4027 98.9829 22.064C99.6123 22.7147 99.9269 23.6587 99.9269 24.896V30H98.4709V25.024C98.4709 24.1493 98.2469 23.4773 97.7989 23.008C97.3509 22.5387 96.7429 22.304 95.9749 22.304C95.1749 22.304 94.5349 22.5653 94.0549 23.088C93.5749 23.6 93.3349 24.352 93.3349 25.344V30H91.8789V21.216H93.3349V23.296C93.5589 22.5813 93.9536 22.032 94.5189 21.648C95.0949 21.264 95.7563 21.072 96.5029 21.072Z" fill="#070F18"/>
</svg>
